<svg xmlns="http://www.w3.org/2000/svg" width="1200" height="800" viewBox="0 0 1200 800" fill="none"><defs><pattern id="grid" width="24" height="24" patternUnits="userSpaceOnUse"><path d="M24 0H0V24" stroke="#1d5678" stroke-width="1" opacity=".35"/></pattern></defs><rect width="1200" height="800" fill="#03101d"/><rect width="1200" height="800" fill="url(#grid)"/><rect x="35" y="45" width="1130" height="700" rx="14" stroke="#9eeaff" stroke-width="8"/><line x1="300" y1="45" x2="300" y2="745" stroke="#9eeaff" stroke-width="7"/><line x1="520" y1="405" x2="520" y2="745" stroke="#9eeaff" stroke-width="7"/><line x1="760" y1="295" x2="760" y2="745" stroke="#9eeaff" stroke-width="7"/><line x1="300" y1="295" x2="1165" y2="295" stroke="#9eeaff" stroke-width="7"/><line x1="35" y1="405" x2="760" y2="405" stroke="#9eeaff" stroke-width="7"/><line x1="35" y1="535" x2="300" y2="535" stroke="#9eeaff" stroke-width="7"/><g fill="#0a2940" opacity=".65"><rect x="50" y="60" width="235" height="105"/><rect x="315" y="60" width="835" height="220"/><rect x="50" y="180" width="235" height="210"/><rect x="315" y="180" width="110" height="100"/><rect x="375" y="310" width="365" height="80"/><rect x="775" y="310" width="375" height="80"/><rect x="50" y="420" width="235" height="100"/><rect x="50" y="550" width="235" height="180"/><rect x="315" y="420" width="190" height="310"/><rect x="535" y="420" width="615" height="310"/></g><g stroke="#39d7ff" stroke-width="10" stroke-linecap="round"><line x1="620" y1="45" x2="735" y2="45"/><line x1="885" y1="45" x2="1000" y2="45"/><line x1="1165" y1="140" x2="1165" y2="235"/><line x1="35" y1="235" x2="35" y2="315"/><line x1="35" y1="600" x2="35" y2="680"/></g><g stroke="#ffc85b" stroke-width="5" fill="none"><path d="M150 45v60a60 60 0 0 1-60-60"/><path d="M300 210h60a60 60 0 0 1-60 60"/><path d="M455 295v-60a60 60 0 0 1 60 60"/><path d="M845 295v-60a60 60 0 0 1 60 60"/><path d="M300 505h60a60 60 0 0 1-60 60"/><path d="M760 485h60a60 60 0 0 1-60 60"/></g><g fill="#dff8ff" font-family="Arial" font-size="23" font-weight="700"><text x="85" y="125">FRONT ENTRY</text><text x="650" y="165" text-anchor="middle">LIVING ROOM</text><text x="115" y="285">KITCHEN</text><text x="330" y="235">BACK ENTRY</text><text x="545" y="355" text-anchor="middle">HALLWAY</text><text x="960" y="355" text-anchor="middle">BATHROOM</text><text x="105" y="480">LAUNDRY</text><text x="110" y="640">BASEMENT</text><text x="405" y="585" text-anchor="middle">STAIRS</text><text x="840" y="585" text-anchor="middle">BEDROOM</text></g><g stroke="#67dfff" stroke-width="3" opacity=".5"><line x1="350" y1="455" x2="350" y2="700"/><line x1="380" y1="455" x2="380" y2="700"/><line x1="410" y1="455" x2="410" y2="700"/><line x1="440" y1="455" x2="440" y2="700"/><line x1="470" y1="455" x2="470" y2="700"/></g></svg>