<svg xmlns="http://www.w3.org/2000/svg" viewBox="0 0 1280 720">
<rect width="1280" height="430" fill="#eff1f2"/>
<rect y="430" width="1280" height="290" fill="#a08872"/>

<!-- washer -->
<rect x="120" y="165" width="265" height="370" rx="20"
fill="#d7dde1" stroke="#afb9c1" stroke-width="5"/>
<circle cx="252" cy="335" r="92" fill="#8fa3b4"/>
<circle cx="252" cy="335" r="63" fill="#d7edf6"/>

<!-- dryer -->
<rect x="420" y="165" width="265" height="370" rx="20"
fill="#d7dde1" stroke="#afb9c1" stroke-width="5"/>
<circle cx="552" cy="335" r="92" fill="#8fa3b4"/>
<circle cx="552" cy="335" r="63" fill="#d7edf6"/>

<!-- cabinets -->
<rect x="760" y="130" width="350" height="155" rx="12"
fill="#c4ccd2"/>
<line x1="875" y1="135" x2="875" y2="280"
stroke="#9ca8af" stroke-width="4"/>
<line x1="995" y1="135" x2="995" y2="280"
stroke="#9ca8af" stroke-width="4"/>

<!-- utility sink -->
<rect x="790" y="330" width="300" height="170" rx="12"
fill="#7f8e98"/>
<rect x="820" y="300" width="240" height="70" rx="10"
fill="#c5d0d5"/>
<ellipse cx="940" cy="335" rx="75" ry="22"
fill="#9fb6c1"/>

<!-- hoses -->
<path d="M220 165v-60M285 165v-60"
stroke="#547687" stroke-width="9"/>
<path d="M520 165v-60"
stroke="#817266" stroke-width="9"/>

<text x="110" y="670" font-size="27" font-family="Arial"
fill="#493e36" font-weight="700">
WASHER HOSES • DRYER • UTILITY SINK • WATER / FIRE RISK
</text>
</svg>